<?xml version="1.0" standalone="no"?>
<!DOCTYPE svg PUBLIC "-//W3C//DTD SVG 20010904//EN"
 "http://www.w3.org/TR/2001/REC-SVG-20010904/DTD/svg10.dtd">
<svg version="1.0" xmlns="http://www.w3.org/2000/svg"
 width="250.000000pt" height="250.000000pt" viewBox="0 0 250.000000 250.000000"
 preserveAspectRatio="xMidYMid meet">

<g transform="translate(0.000000,250.000000) scale(0.100000,-0.100000)"
fill="#000000" stroke="none">
<path d="M1 1928 c1 -514 2 -564 14 -488 86 552 535 982 1100 1053 17 2 -228
5 -542 6 l-573 1 1 -572z"/>
<path d="M1415 2490 c148 -20 333 -83 461 -158 316 -184 544 -507 609 -862 12
-68 13 -21 14 478 l1 552 -572 -1 c-329 -1 -547 -5 -513 -9z"/>
<path d="M502 2204 c-27 -19 -35 -33 -88 -164 l-43 -104 -43 -11 c-51 -12 -60
-38 -32 -91 l18 -33 -42 -88 c-46 -96 -53 -152 -26 -191 20 -29 59 -29 78 1 8
12 28 74 45 136 45 162 53 177 109 195 64 20 211 53 302 67 77 12 110 29 110
60 0 35 -50 40 -222 18 -88 -11 -164 -17 -167 -13 -10 10 45 98 70 111 13 7
61 13 106 13 73 0 84 2 97 22 21 30 20 44 -4 68 -18 18 -33 20 -133 20 -85 0
-118 -4 -135 -16z"/>
<path d="M1815 2185 c-48 -16 -93 -24 -141 -25 -66 0 -73 -2 -97 -30 -15 -16
-38 -32 -51 -36 -24 -6 -36 -29 -36 -70 0 -15 8 -24 26 -28 32 -8 31 -11 -32
-181 -50 -133 -74 -221 -74 -277 0 -42 11 -52 44 -44 31 8 55 60 72 160 17
100 29 134 89 262 41 89 51 104 83 118 51 22 188 56 228 56 84 0 29 -39 -118
-84 -94 -28 -163 -78 -156 -113 4 -20 23 -27 198 -68 108 -26 118 -30 163 -73
43 -43 48 -45 63 -30 45 45 -22 132 -151 199 -35 19 -62 36 -60 40 3 3 30 9
62 12 118 12 193 55 193 109 0 113 -141 160 -305 103z"/>
<path d="M1102 2126 c-39 -21 -62 -66 -62 -119 0 -42 5 -53 31 -78 17 -16 48
-34 70 -40 34 -11 44 -9 85 12 26 13 56 36 67 51 l21 28 -24 50 c-42 89 -125
131 -188 96z"/>
<path d="M935 1750 c-31 -12 -39 -26 -88 -155 -60 -160 -89 -268 -91 -334 0
-47 3 -56 29 -78 27 -23 35 -25 104 -20 116 7 270 69 332 133 28 29 30 35 18
50 -29 35 -53 35 -175 -6 -176 -60 -197 -54 -153 37 32 67 46 72 342 113 48 7
90 17 94 23 3 5 -4 19 -17 29 -22 18 -36 19 -192 12 l-168 -7 0 32 c0 23 9 42
29 62 28 27 34 29 114 29 68 0 86 3 91 16 10 27 7 34 -26 54 -27 16 -50 20
-128 19 -52 0 -104 -4 -115 -9z"/>
<path d="M1875 1478 c-28 -30 -55 -74 -84 -143 -73 -170 -124 -275 -131 -275
-17 0 -29 30 -44 115 -9 50 -22 106 -28 125 -20 66 -61 150 -73 150 -63 0
-106 -53 -212 -266 -75 -151 -87 -204 -53 -246 25 -32 39 -34 80 -13 24 12 33
28 51 88 36 122 81 239 88 230 4 -4 20 -42 36 -83 82 -217 141 -266 218 -181
31 35 51 66 129 211 45 82 108 248 108 283 0 31 -13 47 -37 47 -3 0 -24 -19
-48 -42z"/>
<path d="M403 1452 c-7 -4 -21 -33 -32 -62 -10 -30 -42 -110 -70 -178 -58
-138 -81 -217 -81 -277 0 -52 18 -78 50 -73 22 3 26 11 42 88 10 47 40 141 67
210 64 160 73 195 69 250 -3 45 -18 59 -45 42z"/>
<path d="M1924 1212 c-32 -26 -44 -55 -44 -110 0 -44 4 -53 35 -80 46 -41 95
-50 145 -27 40 18 74 49 82 75 8 24 -38 106 -75 134 -41 31 -110 35 -143 8z"/>
<path d="M1 573 l-1 -573 553 1 c480 1 543 2 482 14 -361 66 -681 291 -867
609 -75 128 -138 313 -158 461 -4 34 -8 -184 -9 -512z"/>
<path d="M2483 1028 c-16 -101 -57 -228 -107 -328 -178 -361 -513 -613 -905
-684 -69 -13 -24 -14 477 -15 l552 -1 0 550 c0 303 -1 550 -3 550 -1 0 -8 -33
-14 -72z"/>
<path d="M1798 896 c-147 -64 -258 -163 -258 -229 0 -40 24 -81 56 -96 15 -6
79 -19 143 -27 129 -16 171 -27 219 -56 44 -27 40 -45 -15 -70 -43 -19 -59
-20 -185 -14 l-137 6 -16 -24 c-9 -14 -15 -37 -13 -52 12 -100 385 -49 482 66
47 56 27 149 -43 196 -48 31 -111 49 -242 70 l-108 16 14 28 c19 37 48 54 146
84 106 33 149 58 149 89 0 13 -5 28 -12 35 -23 23 -99 13 -180 -22z"/>
<path d="M885 896 c-22 -7 -59 -22 -82 -34 -23 -12 -44 -22 -46 -22 -3 0 -7
14 -10 30 -5 23 -12 30 -29 30 -36 0 -45 -11 -60 -69 -11 -48 -17 -56 -43 -63
-29 -7 -30 -9 -31 -70 0 -38 -11 -99 -27 -153 -68 -230 -56 -270 69 -225 32
12 130 46 216 75 382 132 531 263 462 408 -34 70 -135 107 -294 106 -47 0
-103 -6 -125 -13z m263 -106 c49 -21 82 -57 82 -89 0 -6 -16 -29 -35 -50 -25
-27 -61 -50 -118 -74 -90 -38 -435 -142 -443 -134 -13 12 60 252 85 281 19 21
97 63 156 82 63 21 208 13 273 -16z"/>
</g>
</svg>
